<svg id="Layer_1" data-name="Layer 1" xmlns="http://www.w3.org/2000/svg" xmlns:xlink="http://www.w3.org/1999/xlink" viewBox="0 0 582 378"><defs><style>.cls-1{fill:none;}.cls-2{clip-path:url(#clip-path);}.cls-3{fill:#fff;}.cls-4{fill:#b4b820;}.cls-5{fill:#a85df1;}.cls-6{fill:#ff3ce6;}</style><clipPath id="clip-path"><path class="cls-1" d="M582,378V0H0V378Z"/></clipPath></defs><title>pink-purple-green</title><g class="cls-2"><path class="cls-3" d="M582,378V0H0V378Z"/><path class="cls-4" d="M672.07,231.43c-14-4.9-30,.3-44.39-2.72-8.91-1.87-17.82-6.11-26.34-9.22-14-5.09-34.72-10.7-44.17-22.78-6.6-8.44-7.07-16-17.82-20.4-16.09-6.51-37.48-.45-52.59-10.06-10-6.38-7.42-17.72-13.74-27.36-5-7.63-12.73-19.51-20.83-24.36-21.2-12.68-45.59-19.07-65.9-34.35-8.88-6.69-10.47-13-16.55-21.41s-16.85-12.15-20.2-22.59S347,19.36,339.4,10.07c-17.08-20.78-35.08-29.82-40.25-57.41-3.12-16.71-12.3-33.15-2.26-49,12.61-19.94,41.26-25,62.92-25.68,54.4-1.59,108.31,6.77,162.43,8.84,55.73,2.12,108.84-7.18,164,4.54,16.12,3.42,37.31,4.58,49.77,16.37,15.32,14.5,24.54,45.89,27.06,65.72,3.49,27.5-5.31,58.11-14.3,84-7.36,21.22-13.73,45.65-24.21,65.25C713.42,143.58,707.33,151.46,706,176c-.66,12.48-2.89,16.91-11.7,26.32-9.5,10.15-19.38,21.29-27,32.62"/><path class="cls-4" d="M182.44,411c.44-18.72-1.69-38.57-10.5-51-7.86-11.07-11.07-25.21-18.15-36.85-11.91-19.59-27.86-28.68-47.14-34.08-9.81-2.75-22.76,9.63-32.5,17.39-10.08,8-15.16,13.35-25.71,12.76-14.88-.84-40.47,3-52.87,22.9-6,9.6-6.54,23.3-6.22,33.66.69,22.38,12.11,37.32,26,45.61,28.16,16.83,60.42,26.8,90.63,38.69,11.39,4.49,22.79,3.66,35.67-5,8.12-5.45,15.08-15.49,22.34-23,9.59-10,20-17.41,30.17-25.86"/><path class="cls-5" d="M695.63,509.7c6.18-11.63,1.15-22.77,2-35.24,1.31-19.08,3.54-29.56-12.44-46.54-23.59-25.06-59.07-44.46-72.34-75.33-8.27-19.23,6.27-37.88.31-56.23-6.19-19-36.83-29.42-56.41-36.89-27.18-10.38-54.38-21-77.52-37.37-16.23-11.52-24.81-19.63-46.14-19.61-27.87,0-49.48,10.95-76.08,13.33-26.29,2.35-43.2-11.07-67.78-13.56-19.23-1.95-42.46,1-52.58,15.05-12,16.74,6.23,31.13,4.44,48.42-.85,8.22-7.72,15.33-9.75,23.3-2.89,11.34.12,21.2,3.2,32.56,7.06,26.05,12.63,52.1,14,78.36.67,12.95-2.61,31.09,6.91,42.88,14.27,17.67,50,24.3,72,28.59,19.55,3.82,38.68,9.13,58.22,13.08,22.53,4.56,45.59,5.8,68.31,9.07,54.5,7.84,109.07,12,163.56,18.93,20,2.54,39-5,58.3-.62,7.35,1.68,13.31,6.14,20.87,3.87"/><path class="cls-6" d="M-7.14,298.15C39.68,294,85.64,267,125.78,247.6c23-11.12,11.12-17.75,8.43-35.64-1.11-7.42.74-11.83-4.61-18s-14.56-8.66-22.17-12.57c-17.57-9-27.71-19.61-39-34-9.18-11.7-16.06-12.65-30.81-18.82C25,123.3,15.45,112.93,2.37,108.9-78.69,84-65.95,187.37-64.71,223.79c.77,22.68-3.47,56,21.88,71.06,11.51,6.82,31.09,10,42.75,1.59"/><path d="M155.34,340a16.08,16.08,0,0,1-1.52,2.81,25.28,25.28,0,0,1-1.87,2.49,22.9,22.9,0,0,1-2.18,2.23,12.82,12.82,0,0,1-2.64,1.84,14.73,14.73,0,0,1,1.44-2.86,22,22,0,0,1,1.86-2.51,20.32,20.32,0,0,1,2.22-2.23A11.94,11.94,0,0,1,155.34,340Z"/><path d="M168.21,310.25a15.82,15.82,0,0,1-1.52,2.82,24,24,0,0,1-1.87,2.48,21.92,21.92,0,0,1-2.18,2.24,12.82,12.82,0,0,1-2.64,1.84,15.31,15.31,0,0,1,1.44-2.86,22,22,0,0,1,1.86-2.51,20.32,20.32,0,0,1,2.22-2.23A12.32,12.32,0,0,1,168.21,310.25Z"/><path d="M171.27,324.34a16.45,16.45,0,0,1-1.51,2.82,25.54,25.54,0,0,1-1.87,2.48,22,22,0,0,1-2.19,2.24,12.3,12.3,0,0,1-2.64,1.84,15.34,15.34,0,0,1,1.45-2.86,20.89,20.89,0,0,1,1.86-2.51,19.39,19.39,0,0,1,2.21-2.23A12.82,12.82,0,0,1,171.27,324.34Z"/><path d="M163.12,346.22A16.71,16.71,0,0,1,161.6,349a27,27,0,0,1-1.87,2.49,22.92,22.92,0,0,1-2.18,2.23,13.26,13.26,0,0,1-2.64,1.85,14.53,14.53,0,0,1,1.44-2.87,21.72,21.72,0,0,1,1.86-2.51,20.32,20.32,0,0,1,2.22-2.23A11.94,11.94,0,0,1,163.12,346.22Z"/><path d="M140.22,355.2A17.21,17.21,0,0,1,138.7,358a25.54,25.54,0,0,1-1.87,2.48,23,23,0,0,1-2.18,2.24,12.82,12.82,0,0,1-2.64,1.84,14.73,14.73,0,0,1,1.44-2.86,20.89,20.89,0,0,1,1.86-2.51,20.23,20.23,0,0,1,2.21-2.23A12.63,12.63,0,0,1,140.22,355.2Z"/><path d="M140.65,341.14a16.71,16.71,0,0,1-1.52,2.81,27,27,0,0,1-1.87,2.49,21.82,21.82,0,0,1-2.18,2.23,12.86,12.86,0,0,1-2.64,1.85,14.53,14.53,0,0,1,1.44-2.87,21.72,21.72,0,0,1,1.86-2.51,19.39,19.39,0,0,1,2.22-2.22A11.64,11.64,0,0,1,140.65,341.14Z"/><path d="M116.45,357.16a15.82,15.82,0,0,1-1.52,2.82,26.38,26.38,0,0,1-1.87,2.48,20.85,20.85,0,0,1-2.18,2.23,12.86,12.86,0,0,1-2.64,1.85,14.53,14.53,0,0,1,1.44-2.87,22.94,22.94,0,0,1,1.86-2.51,20.23,20.23,0,0,1,2.22-2.22A11.64,11.64,0,0,1,116.45,357.16Z"/><path d="M125.52,323.94a16.45,16.45,0,0,1-1.51,2.82,27,27,0,0,1-1.87,2.49,23,23,0,0,1-2.19,2.23,12.3,12.3,0,0,1-2.64,1.84,15.34,15.34,0,0,1,1.45-2.86,20.89,20.89,0,0,1,1.86-2.51,20.22,20.22,0,0,1,2.21-2.23A12.82,12.82,0,0,1,125.52,323.94Z"/><path d="M122.93,341.53a15.82,15.82,0,0,1-1.52,2.82,24.77,24.77,0,0,1-1.87,2.48,20.85,20.85,0,0,1-2.18,2.23,12.59,12.59,0,0,1-2.64,1.85,14.56,14.56,0,0,1,1.45-2.87,22.86,22.86,0,0,1,1.85-2.51,20.23,20.23,0,0,1,2.22-2.22A11.64,11.64,0,0,1,122.93,341.53Z"/><path d="M100.18,351.87a16.08,16.08,0,0,1-1.52,2.81,25.28,25.28,0,0,1-1.87,2.49,22.9,22.9,0,0,1-2.18,2.23A12.82,12.82,0,0,1,92,361.24a14.73,14.73,0,0,1,1.44-2.86,21.72,21.72,0,0,1,1.86-2.51,20.32,20.32,0,0,1,2.22-2.23A11.94,11.94,0,0,1,100.18,351.87Z"/><path d="M106.5,334.25a15.39,15.39,0,0,1-1.52,2.81,23.79,23.79,0,0,1-1.87,2.49,22.9,22.9,0,0,1-2.18,2.23,12.56,12.56,0,0,1-2.64,1.84,14.76,14.76,0,0,1,1.45-2.86,22.86,22.86,0,0,1,1.85-2.51,21.24,21.24,0,0,1,2.22-2.23A11.94,11.94,0,0,1,106.5,334.25Z"/><path d="M142.38,318.47a17.21,17.21,0,0,1-1.52,2.82,25.54,25.54,0,0,1-1.87,2.48,23,23,0,0,1-2.18,2.24,12.82,12.82,0,0,1-2.64,1.84,14.73,14.73,0,0,1,1.44-2.86,20.89,20.89,0,0,1,1.86-2.51,19.48,19.48,0,0,1,2.22-2.23A12.32,12.32,0,0,1,142.38,318.47Z"/><path d="M154.91,329a17.21,17.21,0,0,1-1.52,2.82,25.54,25.54,0,0,1-1.87,2.48,23,23,0,0,1-2.18,2.24,12.82,12.82,0,0,1-2.64,1.84,14.73,14.73,0,0,1,1.44-2.86A20.89,20.89,0,0,1,150,333a19.48,19.48,0,0,1,2.22-2.23A12.32,12.32,0,0,1,154.91,329Z"/><path d="M148.43,294.64a17.21,17.21,0,0,1-1.52,2.82,26.81,26.81,0,0,1-1.87,2.48,21.85,21.85,0,0,1-2.18,2.23,12.86,12.86,0,0,1-2.64,1.85,14.53,14.53,0,0,1,1.44-2.87,21.72,21.72,0,0,1,1.86-2.51,20.14,20.14,0,0,1,2.21-2.22A12.27,12.27,0,0,1,148.43,294.64Z"/><path d="M156.2,300.89a16.45,16.45,0,0,1-1.51,2.82,26.81,26.81,0,0,1-1.87,2.48,23.13,23.13,0,0,1-2.19,2.24,12.67,12.67,0,0,1-2.64,1.84,14.84,14.84,0,0,1,1.45-2.87,21.72,21.72,0,0,1,1.86-2.51,19.3,19.3,0,0,1,2.21-2.22A12.44,12.44,0,0,1,156.2,300.89Z"/><path d="M133.3,309.88a15.82,15.82,0,0,1-1.52,2.82,24.77,24.77,0,0,1-1.87,2.48,20.85,20.85,0,0,1-2.18,2.23,12.34,12.34,0,0,1-2.64,1.85,14.56,14.56,0,0,1,1.45-2.87,22.86,22.86,0,0,1,1.85-2.51,20.23,20.23,0,0,1,2.22-2.22A11.64,11.64,0,0,1,133.3,309.88Z"/><path d="M133.73,295.81a16.45,16.45,0,0,1-1.51,2.82,26.81,26.81,0,0,1-1.87,2.48,22,22,0,0,1-2.19,2.24,12.67,12.67,0,0,1-2.64,1.84,15.43,15.43,0,0,1,1.45-2.87,21.72,21.72,0,0,1,1.86-2.51,19.3,19.3,0,0,1,2.21-2.22A12.44,12.44,0,0,1,133.73,295.81Z"/><path d="M109.54,311.83a17.21,17.21,0,0,1-1.52,2.82,26.81,26.81,0,0,1-1.87,2.48,23,23,0,0,1-2.18,2.24,13.22,13.22,0,0,1-2.64,1.84,14.81,14.81,0,0,1,1.44-2.87,21.72,21.72,0,0,1,1.86-2.51,19.39,19.39,0,0,1,2.22-2.22A12,12,0,0,1,109.54,311.83Z"/><path d="M118.61,278.62a15.82,15.82,0,0,1-1.52,2.82,25.15,25.15,0,0,1-1.87,2.48,20.85,20.85,0,0,1-2.18,2.23A12.86,12.86,0,0,1,110.4,288a15.1,15.1,0,0,1,1.44-2.87,22.94,22.94,0,0,1,1.86-2.51,20.23,20.23,0,0,1,2.22-2.22A11.64,11.64,0,0,1,118.61,278.62Z"/><path d="M116,296.2A17.21,17.21,0,0,1,114.5,299a26.81,26.81,0,0,1-1.87,2.48,21.92,21.92,0,0,1-2.18,2.24,13.22,13.22,0,0,1-2.64,1.84,14.81,14.81,0,0,1,1.44-2.87,21.72,21.72,0,0,1,1.86-2.51,20.23,20.23,0,0,1,2.22-2.22A12,12,0,0,1,116,296.2Z"/><path d="M96.14,295.81a15.82,15.82,0,0,1-1.52,2.82,23.67,23.67,0,0,1-1.87,2.48,21.92,21.92,0,0,1-2.18,2.24,13.22,13.22,0,0,1-2.64,1.84,15.4,15.4,0,0,1,1.44-2.87,24.32,24.32,0,0,1,1.86-2.51,20.23,20.23,0,0,1,2.22-2.22A12,12,0,0,1,96.14,295.81Z"/><path d="M135.46,273.15a15.82,15.82,0,0,1-1.52,2.82,25.05,25.05,0,0,1-1.86,2.48,22,22,0,0,1-2.19,2.23,12.34,12.34,0,0,1-2.64,1.85,14.56,14.56,0,0,1,1.45-2.87,21.72,21.72,0,0,1,1.86-2.51,19.3,19.3,0,0,1,2.21-2.22A11.64,11.64,0,0,1,135.46,273.15Z"/><path d="M148,283.7a16.45,16.45,0,0,1-1.51,2.82,26.81,26.81,0,0,1-1.87,2.48,22,22,0,0,1-2.19,2.23,12.34,12.34,0,0,1-2.64,1.85,14.56,14.56,0,0,1,1.45-2.87,21.72,21.72,0,0,1,1.86-2.51,19.3,19.3,0,0,1,2.21-2.22A12.08,12.08,0,0,1,148,283.7Z"/><path d="M86.2,326.68a15.82,15.82,0,0,1-1.52,2.82A23.67,23.67,0,0,1,82.81,332a20.85,20.85,0,0,1-2.18,2.23A12.34,12.34,0,0,1,78,336.06a14.56,14.56,0,0,1,1.45-2.87,22.86,22.86,0,0,1,1.85-2.51,20.23,20.23,0,0,1,2.22-2.22A12,12,0,0,1,86.2,326.68Z"/><path d="M94,332.93a15.82,15.82,0,0,1-1.52,2.82,25.15,25.15,0,0,1-1.87,2.48,21.92,21.92,0,0,1-2.18,2.24,13.22,13.22,0,0,1-2.64,1.84,15.4,15.4,0,0,1,1.44-2.87,22.94,22.94,0,0,1,1.86-2.51,20.23,20.23,0,0,1,2.22-2.22A12,12,0,0,1,94,332.93Z"/><path d="M71.08,341.92a15.82,15.82,0,0,1-1.52,2.82,25.15,25.15,0,0,1-1.87,2.48,20.85,20.85,0,0,1-2.18,2.23,12.86,12.86,0,0,1-2.64,1.85,14.53,14.53,0,0,1,1.44-2.87,21.72,21.72,0,0,1,1.86-2.51,19.39,19.39,0,0,1,2.22-2.22A11.64,11.64,0,0,1,71.08,341.92Z"/><path d="M71.51,327.85A15.82,15.82,0,0,1,70,330.67a23.67,23.67,0,0,1-1.87,2.48,21.92,21.92,0,0,1-2.18,2.24,13.22,13.22,0,0,1-2.64,1.84,15.31,15.31,0,0,1,1.44-2.86,23.41,23.41,0,0,1,1.86-2.52,21.15,21.15,0,0,1,2.22-2.22A12,12,0,0,1,71.51,327.85Z"/><path d="M47.31,343.87a15.82,15.82,0,0,1-1.52,2.82,25.05,25.05,0,0,1-1.86,2.48,23.13,23.13,0,0,1-2.19,2.24,12.3,12.3,0,0,1-2.64,1.84,14.76,14.76,0,0,1,1.45-2.86,21.83,21.83,0,0,1,1.86-2.52,20.14,20.14,0,0,1,2.21-2.22A12,12,0,0,1,47.31,343.87Z"/><path d="M34.75,358.58a16.08,16.08,0,0,1-1.52,2.81,25.28,25.28,0,0,1-1.87,2.49,22.9,22.9,0,0,1-2.18,2.23A12.82,12.82,0,0,1,26.54,368,14.73,14.73,0,0,1,28,365.09a20.89,20.89,0,0,1,1.86-2.51,20.32,20.32,0,0,1,2.22-2.23A11.94,11.94,0,0,1,34.75,358.58Z"/><path d="M56.39,310.66a17.21,17.21,0,0,1-1.52,2.82A26.81,26.81,0,0,1,53,316a21.85,21.85,0,0,1-2.18,2.23A12.86,12.86,0,0,1,48.18,320a14.53,14.53,0,0,1,1.44-2.87,21.72,21.72,0,0,1,1.86-2.51,19.39,19.39,0,0,1,2.22-2.22A12,12,0,0,1,56.39,310.66Z"/><path d="M53.79,328.24a16.45,16.45,0,0,1-1.51,2.82,25.54,25.54,0,0,1-1.87,2.48,22,22,0,0,1-2.19,2.24,12.3,12.3,0,0,1-2.64,1.84A15.34,15.34,0,0,1,47,334.76a21.83,21.83,0,0,1,1.86-2.52A20.14,20.14,0,0,1,51.1,330,12.44,12.44,0,0,1,53.79,328.24Z"/><path d="M33.92,327.85a17.21,17.21,0,0,1-1.52,2.82,26.81,26.81,0,0,1-1.87,2.48,21.92,21.92,0,0,1-2.18,2.24,13.22,13.22,0,0,1-2.64,1.84,14.73,14.73,0,0,1,1.44-2.86A21,21,0,0,1,29,331.85a20.23,20.23,0,0,1,2.22-2.22A12,12,0,0,1,33.92,327.85Z"/><path d="M73.24,305.19A15.82,15.82,0,0,1,71.72,308a25.15,25.15,0,0,1-1.87,2.48,20.85,20.85,0,0,1-2.18,2.23A12.86,12.86,0,0,1,65,314.57a14.53,14.53,0,0,1,1.44-2.87,21.72,21.72,0,0,1,1.86-2.51A19.39,19.39,0,0,1,70.55,307,12,12,0,0,1,73.24,305.19Z"/><path d="M85.77,315.74a15.82,15.82,0,0,1-1.52,2.82A25.15,25.15,0,0,1,82.38,321a20.85,20.85,0,0,1-2.18,2.23,12.86,12.86,0,0,1-2.64,1.85A15.1,15.1,0,0,1,79,322.25a22.94,22.94,0,0,1,1.86-2.51,20.23,20.23,0,0,1,2.22-2.22A12,12,0,0,1,85.77,315.74Z"/><path d="M90.09,375.91a15.82,15.82,0,0,1-1.52,2.82,22.67,22.67,0,0,1-1.87,2.48,21.92,21.92,0,0,1-2.18,2.24,12.82,12.82,0,0,1-2.64,1.84,14.76,14.76,0,0,1,1.45-2.86,23,23,0,0,1,1.85-2.52,21.15,21.15,0,0,1,2.22-2.22A12,12,0,0,1,90.09,375.91Z"/><path d="M75.4,377.09a15.39,15.39,0,0,1-1.52,2.81A25.28,25.28,0,0,1,72,382.39a22.9,22.9,0,0,1-2.18,2.23,12.82,12.82,0,0,1-2.64,1.84,14.73,14.73,0,0,1,1.44-2.86,22.94,22.94,0,0,1,1.86-2.51,20.32,20.32,0,0,1,2.22-2.23A11.94,11.94,0,0,1,75.4,377.09Z"/><path d="M60.28,359.89a17.21,17.21,0,0,1-1.52,2.82,25.54,25.54,0,0,1-1.87,2.48,23,23,0,0,1-2.18,2.24,12.82,12.82,0,0,1-2.64,1.84,14.73,14.73,0,0,1,1.44-2.86,21.83,21.83,0,0,1,1.86-2.52,21.05,21.05,0,0,1,2.21-2.22A12.27,12.27,0,0,1,60.28,359.89Z"/><path d="M57.68,377.48a15.39,15.39,0,0,1-1.52,2.81,25.18,25.18,0,0,1-1.86,2.49A23,23,0,0,1,52.11,385a12.3,12.3,0,0,1-2.64,1.84A14.76,14.76,0,0,1,50.92,384a21.72,21.72,0,0,1,1.86-2.51A20.22,20.22,0,0,1,55,379.25,12.4,12.4,0,0,1,57.68,377.48Z"/><path d="M37.81,377.09a16.71,16.71,0,0,1-1.52,2.81,27,27,0,0,1-1.87,2.49,24.11,24.11,0,0,1-2.18,2.23,12.82,12.82,0,0,1-2.64,1.84A14.73,14.73,0,0,1,31,383.6a21.72,21.72,0,0,1,1.86-2.51,20.32,20.32,0,0,1,2.22-2.23A11.94,11.94,0,0,1,37.81,377.09Z"/><path d="M77.13,354.42a16.48,16.48,0,0,1-1.52,2.82,26.81,26.81,0,0,1-1.87,2.48A21.92,21.92,0,0,1,71.56,362a12.82,12.82,0,0,1-2.64,1.84,14.73,14.73,0,0,1,1.44-2.86,21.83,21.83,0,0,1,1.86-2.52,20.23,20.23,0,0,1,2.22-2.22A12,12,0,0,1,77.13,354.42Z"/><path d="M89.66,365a15.82,15.82,0,0,1-1.52,2.82,25.15,25.15,0,0,1-1.87,2.48,21.92,21.92,0,0,1-2.18,2.24,12.82,12.82,0,0,1-2.64,1.84,14.73,14.73,0,0,1,1.44-2.86A21.83,21.83,0,0,1,84.75,369,20.23,20.23,0,0,1,87,366.75,12,12,0,0,1,89.66,365Z"/><path d="M28.47,110.37A16.08,16.08,0,0,1,27,113.18a25.28,25.28,0,0,1-1.87,2.49,22.9,22.9,0,0,1-2.18,2.23,12.82,12.82,0,0,1-2.64,1.84,14.73,14.73,0,0,1,1.44-2.86,21.72,21.72,0,0,1,1.86-2.51,20.32,20.32,0,0,1,2.22-2.23A11.94,11.94,0,0,1,28.47,110.37Z"/><path d="M41.34,80.65a15.82,15.82,0,0,1-1.52,2.82A24,24,0,0,1,38,86a21.92,21.92,0,0,1-2.18,2.24A12.82,12.82,0,0,1,33.13,90a14.73,14.73,0,0,1,1.44-2.86,22,22,0,0,1,1.86-2.51,19.48,19.48,0,0,1,2.22-2.23A12.32,12.32,0,0,1,41.34,80.65Z"/><path d="M44.4,94.74a16.45,16.45,0,0,1-1.51,2.82A25.54,25.54,0,0,1,41,100a22,22,0,0,1-2.19,2.24,12.3,12.3,0,0,1-2.64,1.84,15.34,15.34,0,0,1,1.45-2.86,20.89,20.89,0,0,1,1.86-2.51,19.39,19.39,0,0,1,2.21-2.23A12.82,12.82,0,0,1,44.4,94.74Z"/><path d="M36.25,116.62a16.71,16.71,0,0,1-1.52,2.81,27,27,0,0,1-1.87,2.49,22.92,22.92,0,0,1-2.18,2.23A13.26,13.26,0,0,1,28,126a14.53,14.53,0,0,1,1.44-2.87,21.72,21.72,0,0,1,1.86-2.51,19.39,19.39,0,0,1,2.22-2.22A11.64,11.64,0,0,1,36.25,116.62Z"/><path d="M13.35,125.6a17.21,17.21,0,0,1-1.52,2.82A25.54,25.54,0,0,1,10,130.9a23,23,0,0,1-2.18,2.24A12.82,12.82,0,0,1,5.14,135a14.73,14.73,0,0,1,1.44-2.86,20.89,20.89,0,0,1,1.86-2.51,20.23,20.23,0,0,1,2.21-2.23A12.63,12.63,0,0,1,13.35,125.6Z"/><path d="M13.78,111.54a17.21,17.21,0,0,1-1.52,2.82,28.23,28.23,0,0,1-1.87,2.48,20.85,20.85,0,0,1-2.18,2.23,12.86,12.86,0,0,1-2.64,1.85A14.53,14.53,0,0,1,7,118.05a21.72,21.72,0,0,1,1.86-2.51,19.39,19.39,0,0,1,2.22-2.22A11.64,11.64,0,0,1,13.78,111.54Z"/><path d="M15.51,88.87A17.21,17.21,0,0,1,14,91.69a27,27,0,0,1-1.87,2.49,24.11,24.11,0,0,1-2.18,2.23A12.82,12.82,0,0,1,7.3,98.25a14.73,14.73,0,0,1,1.44-2.86,20.89,20.89,0,0,1,1.86-2.51,20.23,20.23,0,0,1,2.21-2.23A12.63,12.63,0,0,1,15.51,88.87Z"/><path d="M28,99.42a17.21,17.21,0,0,1-1.52,2.82,27,27,0,0,1-1.87,2.49A24.11,24.11,0,0,1,22.47,107a12.82,12.82,0,0,1-2.64,1.84,14.73,14.73,0,0,1,1.44-2.86,20.89,20.89,0,0,1,1.86-2.51,19.48,19.48,0,0,1,2.22-2.23A12.32,12.32,0,0,1,28,99.42Z"/><path d="M21.56,65A17.21,17.21,0,0,1,20,67.86a26.81,26.81,0,0,1-1.87,2.48A21.85,21.85,0,0,1,16,72.57a12.86,12.86,0,0,1-2.64,1.85,14.53,14.53,0,0,1,1.44-2.87A21.72,21.72,0,0,1,16.65,69a20.14,20.14,0,0,1,2.21-2.22A12.27,12.27,0,0,1,21.56,65Z"/><path d="M29.33,71.29a15.82,15.82,0,0,1-1.52,2.82A25.05,25.05,0,0,1,26,76.59a23.13,23.13,0,0,1-2.19,2.24,12.67,12.67,0,0,1-2.64,1.84,14.84,14.84,0,0,1,1.45-2.87,21.72,21.72,0,0,1,1.86-2.51,19.3,19.3,0,0,1,2.21-2.22A12.44,12.44,0,0,1,29.33,71.29Z"/><path d="M6.43,80.28A15.82,15.82,0,0,1,4.91,83.1,24.77,24.77,0,0,1,3,85.58,20.85,20.85,0,0,1,.86,87.81a12.59,12.59,0,0,1-2.64,1.85A14.56,14.56,0,0,1-.33,86.79a22.86,22.86,0,0,1,1.85-2.51,20.23,20.23,0,0,1,2.22-2.22A11.64,11.64,0,0,1,6.43,80.28Z"/><path d="M6.86,66.21A16.45,16.45,0,0,1,5.35,69a26.81,26.81,0,0,1-1.87,2.48,23.13,23.13,0,0,1-2.19,2.24,12.67,12.67,0,0,1-2.64,1.84A14.84,14.84,0,0,1,.1,72.72,21.72,21.72,0,0,1,2,70.21,19.3,19.3,0,0,1,4.17,68,12.44,12.44,0,0,1,6.86,66.21Z"/><path d="M8.59,43.55a15.82,15.82,0,0,1-1.52,2.82A23.67,23.67,0,0,1,5.2,48.85,20.85,20.85,0,0,1,3,51.08,12.34,12.34,0,0,1,.38,52.93a14.56,14.56,0,0,1,1.45-2.87,22.86,22.86,0,0,1,1.85-2.51A20.23,20.23,0,0,1,5.9,45.33,11.64,11.64,0,0,1,8.59,43.55Z"/><path d="M21.12,54.1a15.82,15.82,0,0,1-1.52,2.82,25.05,25.05,0,0,1-1.86,2.48,22,22,0,0,1-2.19,2.23,12.34,12.34,0,0,1-2.64,1.85,14.56,14.56,0,0,1,1.45-2.87,21.72,21.72,0,0,1,1.86-2.51,19.3,19.3,0,0,1,2.21-2.22A12.08,12.08,0,0,1,21.12,54.1Z"/><path d="M587.63,235.73a15.82,15.82,0,0,1-1.52,2.82,25.15,25.15,0,0,1-1.87,2.48,20.85,20.85,0,0,1-2.18,2.23,12.86,12.86,0,0,1-2.64,1.85,14.53,14.53,0,0,1,1.44-2.87,21.72,21.72,0,0,1,1.86-2.51,19.39,19.39,0,0,1,2.22-2.22A12,12,0,0,1,587.63,235.73Z"/><path d="M583.59,179.68a15.39,15.39,0,0,1-1.52,2.81A25.28,25.28,0,0,1,580.2,185a21.82,21.82,0,0,1-2.18,2.23,12.82,12.82,0,0,1-2.64,1.84,15.31,15.31,0,0,1,1.44-2.86,22.94,22.94,0,0,1,1.86-2.51,21.24,21.24,0,0,1,2.22-2.23A11.94,11.94,0,0,1,583.59,179.68Z"/><path d="M573.65,210.55a16.08,16.08,0,0,1-1.52,2.81,23.79,23.79,0,0,1-1.87,2.49,22.9,22.9,0,0,1-2.18,2.23,12.56,12.56,0,0,1-2.64,1.84,14.76,14.76,0,0,1,1.45-2.86,21.94,21.94,0,0,1,1.85-2.51,21.24,21.24,0,0,1,2.22-2.23A11.94,11.94,0,0,1,573.65,210.55Z"/><path d="M581.43,216.8a15.39,15.39,0,0,1-1.52,2.81A25.28,25.28,0,0,1,578,222.1a21.82,21.82,0,0,1-2.18,2.23,13.26,13.26,0,0,1-2.64,1.85,14.53,14.53,0,0,1,1.44-2.87,22.94,22.94,0,0,1,1.86-2.51,20.32,20.32,0,0,1,2.22-2.23A11.94,11.94,0,0,1,581.43,216.8Z"/><path d="M558.53,225.78A16.48,16.48,0,0,1,557,228.6a25.54,25.54,0,0,1-1.87,2.48,21.92,21.92,0,0,1-2.18,2.24,12.82,12.82,0,0,1-2.64,1.84,14.73,14.73,0,0,1,1.44-2.86,20.89,20.89,0,0,1,1.86-2.51,19.48,19.48,0,0,1,2.22-2.23A12.32,12.32,0,0,1,558.53,225.78Z"/><path d="M559,211.72a15.82,15.82,0,0,1-1.52,2.82,26.38,26.38,0,0,1-1.87,2.48,20.85,20.85,0,0,1-2.18,2.23,12.86,12.86,0,0,1-2.64,1.85,15.1,15.1,0,0,1,1.44-2.87,22.94,22.94,0,0,1,1.86-2.51,20.23,20.23,0,0,1,2.22-2.22A11.64,11.64,0,0,1,559,211.72Z"/><path d="M534.76,227.74a15.82,15.82,0,0,1-1.52,2.82,24.77,24.77,0,0,1-1.87,2.48,20.85,20.85,0,0,1-2.18,2.23,12.34,12.34,0,0,1-2.64,1.85,14.56,14.56,0,0,1,1.45-2.87,22.86,22.86,0,0,1,1.85-2.51,20.23,20.23,0,0,1,2.22-2.22A11.64,11.64,0,0,1,534.76,227.74Z"/><path d="M522.2,242.44a17.21,17.21,0,0,1-1.52,2.82,26.81,26.81,0,0,1-1.87,2.48,20.85,20.85,0,0,1-2.18,2.23,12.86,12.86,0,0,1-2.64,1.85,14.53,14.53,0,0,1,1.44-2.87,21.72,21.72,0,0,1,1.86-2.51,19.39,19.39,0,0,1,2.22-2.22A12,12,0,0,1,522.2,242.44Z"/><path d="M543.84,194.53a17.52,17.52,0,0,1-1.52,2.81,27,27,0,0,1-1.87,2.49,24.11,24.11,0,0,1-2.18,2.23,12.82,12.82,0,0,1-2.64,1.84,14.73,14.73,0,0,1,1.44-2.86,20.89,20.89,0,0,1,1.86-2.51,20.32,20.32,0,0,1,2.22-2.23A11.94,11.94,0,0,1,543.84,194.53Z"/><path d="M541.24,212.11a16.45,16.45,0,0,1-1.51,2.82,28.23,28.23,0,0,1-1.87,2.48,22,22,0,0,1-2.19,2.23,12.34,12.34,0,0,1-2.64,1.85,14.56,14.56,0,0,1,1.45-2.87,21.72,21.72,0,0,1,1.86-2.51,19.3,19.3,0,0,1,2.21-2.22A12.08,12.08,0,0,1,541.24,212.11Z"/><path d="M521.37,211.72a17.21,17.21,0,0,1-1.52,2.82A28.23,28.23,0,0,1,518,217a21.85,21.85,0,0,1-2.18,2.23,12.86,12.86,0,0,1-2.64,1.85,14.53,14.53,0,0,1,1.44-2.87,21.72,21.72,0,0,1,1.86-2.51,19.39,19.39,0,0,1,2.22-2.22A11.64,11.64,0,0,1,521.37,211.72Z"/><path d="M560.69,189.05a15.82,15.82,0,0,1-1.52,2.82,24,24,0,0,1-1.87,2.48,21.92,21.92,0,0,1-2.18,2.24,12.82,12.82,0,0,1-2.64,1.84,14.73,14.73,0,0,1,1.44-2.86,20.89,20.89,0,0,1,1.86-2.51,19.48,19.48,0,0,1,2.22-2.23A12.32,12.32,0,0,1,560.69,189.05Z"/><path d="M573.22,199.6a15.82,15.82,0,0,1-1.52,2.82,24,24,0,0,1-1.87,2.48,21.92,21.92,0,0,1-2.18,2.24A12.82,12.82,0,0,1,565,209a14.73,14.73,0,0,1,1.44-2.86,22,22,0,0,1,1.86-2.51,19.48,19.48,0,0,1,2.22-2.23A12.32,12.32,0,0,1,573.22,199.6Z"/><path d="M577.54,259.78A15.82,15.82,0,0,1,576,262.6a23.67,23.67,0,0,1-1.87,2.48,20.85,20.85,0,0,1-2.18,2.23,12.86,12.86,0,0,1-2.64,1.85,15.1,15.1,0,0,1,1.44-2.87,22.94,22.94,0,0,1,1.86-2.51,20.23,20.23,0,0,1,2.22-2.22A11.64,11.64,0,0,1,577.54,259.78Z"/><path d="M585.32,266a15.82,15.82,0,0,1-1.52,2.82,25.15,25.15,0,0,1-1.87,2.48,20.85,20.85,0,0,1-2.18,2.23,12.86,12.86,0,0,1-2.64,1.85,14.53,14.53,0,0,1,1.44-2.87,21.72,21.72,0,0,1,1.86-2.51,19.39,19.39,0,0,1,2.22-2.22A12,12,0,0,1,585.32,266Z"/><path d="M562.42,275a17.21,17.21,0,0,1-1.52,2.82,28.23,28.23,0,0,1-1.87,2.48,21.85,21.85,0,0,1-2.18,2.23,12.86,12.86,0,0,1-2.64,1.85,14.53,14.53,0,0,1,1.44-2.87,21.72,21.72,0,0,1,1.86-2.51,19.39,19.39,0,0,1,2.22-2.22A11.64,11.64,0,0,1,562.42,275Z"/><path d="M562.85,261a15.82,15.82,0,0,1-1.52,2.82,25.15,25.15,0,0,1-1.87,2.48,21.92,21.92,0,0,1-2.18,2.24,13.22,13.22,0,0,1-2.64,1.84,14.53,14.53,0,0,1,1.44-2.87,21.72,21.72,0,0,1,1.86-2.51,19.39,19.39,0,0,1,2.22-2.22A12,12,0,0,1,562.85,261Z"/><path d="M538.65,277a15.82,15.82,0,0,1-1.52,2.82,23.67,23.67,0,0,1-1.87,2.48,21.92,21.92,0,0,1-2.18,2.24,13.22,13.22,0,0,1-2.64,1.84,14.84,14.84,0,0,1,1.45-2.87,22.86,22.86,0,0,1,1.85-2.51,20.23,20.23,0,0,1,2.22-2.22A12,12,0,0,1,538.65,277Z"/><path d="M547.73,243.76a17.21,17.21,0,0,1-1.52,2.82,28.23,28.23,0,0,1-1.87,2.48,21.85,21.85,0,0,1-2.18,2.23,12.86,12.86,0,0,1-2.64,1.85,14.53,14.53,0,0,1,1.44-2.87,21.72,21.72,0,0,1,1.86-2.51,20.14,20.14,0,0,1,2.21-2.22A11.92,11.92,0,0,1,547.73,243.76Z"/><path d="M545.13,261.34a15.82,15.82,0,0,1-1.52,2.82,25.05,25.05,0,0,1-1.86,2.48,23.13,23.13,0,0,1-2.19,2.24,12.67,12.67,0,0,1-2.64,1.84,14.84,14.84,0,0,1,1.45-2.87,21.72,21.72,0,0,1,1.86-2.51,19.3,19.3,0,0,1,2.21-2.22A12,12,0,0,1,545.13,261.34Z"/><path d="M525.26,261a17.21,17.21,0,0,1-1.52,2.82,26.81,26.81,0,0,1-1.87,2.48,23,23,0,0,1-2.18,2.24,13.22,13.22,0,0,1-2.64,1.84,14.81,14.81,0,0,1,1.44-2.87,21.72,21.72,0,0,1,1.86-2.51,20.14,20.14,0,0,1,2.21-2.22A12.27,12.27,0,0,1,525.26,261Z"/><path d="M564.58,238.29a17.21,17.21,0,0,1-1.52,2.82,28.23,28.23,0,0,1-1.87,2.48,21.85,21.85,0,0,1-2.18,2.23,12.86,12.86,0,0,1-2.64,1.85,14.53,14.53,0,0,1,1.44-2.87,21.72,21.72,0,0,1,1.86-2.51,19.39,19.39,0,0,1,2.22-2.22A11.64,11.64,0,0,1,564.58,238.29Z"/><path d="M577.11,248.84a15.82,15.82,0,0,1-1.52,2.82,26.38,26.38,0,0,1-1.87,2.48,20.85,20.85,0,0,1-2.18,2.23,12.86,12.86,0,0,1-2.64,1.85,14.53,14.53,0,0,1,1.44-2.87,21.72,21.72,0,0,1,1.86-2.51,19.39,19.39,0,0,1,2.22-2.22A11.64,11.64,0,0,1,577.11,248.84Z"/><path class="cls-3" d="M479.19,11.58a15.82,15.82,0,0,1-1.52,2.82,23.93,23.93,0,0,1-1.86,2.48,23.13,23.13,0,0,1-2.19,2.24A12.3,12.3,0,0,1,471,21a14.76,14.76,0,0,1,1.45-2.86,20.89,20.89,0,0,1,1.86-2.51,19.39,19.39,0,0,1,2.21-2.23A12.32,12.32,0,0,1,479.19,11.58Z"/><path class="cls-3" d="M495.13-4a17.21,17.21,0,0,1-1.52,2.82,26.81,26.81,0,0,1-1.87,2.48,21.92,21.92,0,0,1-2.18,2.24,12.82,12.82,0,0,1-2.64,1.84,14.73,14.73,0,0,1,1.44-2.86A21.83,21.83,0,0,1,490.22,0a20.23,20.23,0,0,1,2.22-2.22A12,12,0,0,1,495.13-4Z"/><path class="cls-3" d="M487,17.84a15.39,15.39,0,0,1-1.52,2.81,23.79,23.79,0,0,1-1.87,2.49,22.9,22.9,0,0,1-2.18,2.23,12.82,12.82,0,0,1-2.64,1.84,15.31,15.31,0,0,1,1.44-2.86,24.32,24.32,0,0,1,1.86-2.51,21.24,21.24,0,0,1,2.22-2.23A11.94,11.94,0,0,1,487,17.84Z"/><path class="cls-3" d="M464.07,26.82a15.82,15.82,0,0,1-1.52,2.82,24,24,0,0,1-1.87,2.48,21.92,21.92,0,0,1-2.18,2.24,12.82,12.82,0,0,1-2.64,1.84,14.73,14.73,0,0,1,1.44-2.86,21.83,21.83,0,0,1,1.86-2.52,20.23,20.23,0,0,1,2.22-2.22A12,12,0,0,1,464.07,26.82Z"/><path class="cls-3" d="M464.5,12.76A15.39,15.39,0,0,1,463,15.57a23.79,23.79,0,0,1-1.87,2.49,21.82,21.82,0,0,1-2.18,2.23,12.82,12.82,0,0,1-2.64,1.84,14.76,14.76,0,0,1,1.45-2.86,22.86,22.86,0,0,1,1.85-2.51,21.24,21.24,0,0,1,2.22-2.23A11.94,11.94,0,0,1,464.5,12.76Z"/><path class="cls-3" d="M440.3,28.78a15.39,15.39,0,0,1-1.52,2.81,25.18,25.18,0,0,1-1.86,2.49,23,23,0,0,1-2.19,2.23,12.3,12.3,0,0,1-2.64,1.84,14.76,14.76,0,0,1,1.45-2.86,21.72,21.72,0,0,1,1.86-2.51,20.22,20.22,0,0,1,2.21-2.23A12.4,12.4,0,0,1,440.3,28.78Z"/><path class="cls-3" d="M449.38-4.44a17.21,17.21,0,0,1-1.52,2.82A25.54,25.54,0,0,1,446,.86a23,23,0,0,1-2.18,2.24,12.82,12.82,0,0,1-2.64,1.84,14.73,14.73,0,0,1,1.44-2.86,20.89,20.89,0,0,1,1.86-2.51,19.48,19.48,0,0,1,2.22-2.23A12.32,12.32,0,0,1,449.38-4.44Z"/><path class="cls-3" d="M446.79,13.15A16.71,16.71,0,0,1,445.27,16a27,27,0,0,1-1.87,2.49,21.93,21.93,0,0,1-2.19,2.23,12.9,12.9,0,0,1-2.63,1.85A14.53,14.53,0,0,1,440,19.66a21.72,21.72,0,0,1,1.86-2.51,20.22,20.22,0,0,1,2.21-2.23A12.23,12.23,0,0,1,446.79,13.15Z"/><path class="cls-3" d="M424,23.48a15.82,15.82,0,0,1-1.52,2.82,23.93,23.93,0,0,1-1.86,2.48A23.13,23.13,0,0,1,418.46,31a12.3,12.3,0,0,1-2.64,1.84A14.76,14.76,0,0,1,417.27,30a20.89,20.89,0,0,1,1.86-2.51,19.39,19.39,0,0,1,2.21-2.23A12.32,12.32,0,0,1,424,23.48Z"/><path class="cls-3" d="M430.36,5.87a17.52,17.52,0,0,1-1.52,2.81A27,27,0,0,1,427,11.17a24.11,24.11,0,0,1-2.18,2.23,12.82,12.82,0,0,1-2.64,1.84,14.73,14.73,0,0,1,1.44-2.86,20.89,20.89,0,0,1,1.86-2.51,21.14,21.14,0,0,1,2.21-2.23A12.23,12.23,0,0,1,430.36,5.87Z"/><path class="cls-3" d="M478.76.64a15.82,15.82,0,0,1-1.52,2.82,22.67,22.67,0,0,1-1.87,2.48,21.92,21.92,0,0,1-2.18,2.24A12.82,12.82,0,0,1,470.55,10,15.31,15.31,0,0,1,472,7.16a23.06,23.06,0,0,1,1.86-2.52,21.15,21.15,0,0,1,2.22-2.22A12,12,0,0,1,478.76.64Z"/><path class="cls-3" d="M410.06-1.7a17.21,17.21,0,0,1-1.52,2.82,26.81,26.81,0,0,1-1.87,2.48,21.85,21.85,0,0,1-2.18,2.23,12.86,12.86,0,0,1-2.64,1.85,14.53,14.53,0,0,1,1.44-2.87,21.72,21.72,0,0,1,1.86-2.51A20.14,20.14,0,0,1,407.36.08,11.92,11.92,0,0,1,410.06-1.7Z"/><path class="cls-3" d="M417.83,4.55a16.45,16.45,0,0,1-1.51,2.82,26.81,26.81,0,0,1-1.87,2.48,22,22,0,0,1-2.19,2.23,12.34,12.34,0,0,1-2.64,1.85,14.56,14.56,0,0,1,1.45-2.87,21.72,21.72,0,0,1,1.86-2.51,19.3,19.3,0,0,1,2.21-2.22A12.44,12.44,0,0,1,417.83,4.55Z"/><path class="cls-3" d="M394.93,13.54a15.82,15.82,0,0,1-1.52,2.82,24.77,24.77,0,0,1-1.87,2.48,20.85,20.85,0,0,1-2.18,2.23,12.34,12.34,0,0,1-2.64,1.85,14.56,14.56,0,0,1,1.45-2.87A22.86,22.86,0,0,1,390,17.54a20.23,20.23,0,0,1,2.22-2.22A11.64,11.64,0,0,1,394.93,13.54Z"/><path class="cls-3" d="M395.36-.53a16.45,16.45,0,0,1-1.51,2.82A26.81,26.81,0,0,1,392,4.77,22,22,0,0,1,389.79,7a12.67,12.67,0,0,1-2.64,1.84A15.43,15.43,0,0,1,388.6,6a21.72,21.72,0,0,1,1.86-2.51,19.3,19.3,0,0,1,2.21-2.22A12.44,12.44,0,0,1,395.36-.53Z"/><path class="cls-3" d="M371.17,15.49a17.21,17.21,0,0,1-1.52,2.82,26.81,26.81,0,0,1-1.87,2.48A23,23,0,0,1,365.6,23,13.22,13.22,0,0,1,363,24.87,14.81,14.81,0,0,1,364.4,22a21.72,21.72,0,0,1,1.86-2.51,19.39,19.39,0,0,1,2.22-2.22A12,12,0,0,1,371.17,15.49Z"/><path class="cls-3" d="M358.6,30.19A15.82,15.82,0,0,1,357.08,33a22.67,22.67,0,0,1-1.87,2.48A21.92,21.92,0,0,1,353,37.73a12.3,12.3,0,0,1-2.64,1.84,14.76,14.76,0,0,1,1.45-2.86,21.94,21.94,0,0,1,1.85-2.51A20.32,20.32,0,0,1,355.91,32,12.32,12.32,0,0,1,358.6,30.19Z"/><path class="cls-3" d="M377.65-.14a17.21,17.21,0,0,1-1.52,2.82,26.81,26.81,0,0,1-1.87,2.48,21.92,21.92,0,0,1-2.18,2.24,13.22,13.22,0,0,1-2.64,1.84,14.81,14.81,0,0,1,1.44-2.87,21.72,21.72,0,0,1,1.86-2.51A19.39,19.39,0,0,1,375,1.64,12,12,0,0,1,377.65-.14Z"/><path class="cls-3" d="M357.77-.53a15.82,15.82,0,0,1-1.52,2.82,23.67,23.67,0,0,1-1.87,2.48A21.92,21.92,0,0,1,352.2,7a13.22,13.22,0,0,1-2.64,1.84A15.4,15.4,0,0,1,351,6a22.94,22.94,0,0,1,1.86-2.51,20.23,20.23,0,0,1,2.22-2.22A12,12,0,0,1,357.77-.53Z"/><path class="cls-3" d="M414,47.53a17.21,17.21,0,0,1-1.52,2.82,26.81,26.81,0,0,1-1.87,2.48,22,22,0,0,1-2.19,2.24,12.49,12.49,0,0,1-2.63,1.84,14.73,14.73,0,0,1,1.44-2.86A21.83,21.83,0,0,1,409,51.53a20.14,20.14,0,0,1,2.21-2.22A12.27,12.27,0,0,1,414,47.53Z"/><path class="cls-3" d="M421.72,53.78a15.82,15.82,0,0,1-1.52,2.82,23.93,23.93,0,0,1-1.86,2.48,23.13,23.13,0,0,1-2.19,2.24,12.3,12.3,0,0,1-2.64,1.84A14.76,14.76,0,0,1,415,60.3a20.89,20.89,0,0,1,1.86-2.51A19.39,19.39,0,0,1,419,55.56,12.32,12.32,0,0,1,421.72,53.78Z"/><path class="cls-3" d="M398.82,62.77a15.82,15.82,0,0,1-1.52,2.82,23.67,23.67,0,0,1-1.87,2.48,21.92,21.92,0,0,1-2.18,2.24,13.22,13.22,0,0,1-2.64,1.84,15.4,15.4,0,0,1,1.44-2.87,24.32,24.32,0,0,1,1.86-2.51,20.23,20.23,0,0,1,2.22-2.22A12,12,0,0,1,398.82,62.77Z"/><path class="cls-3" d="M399.25,48.7a15.82,15.82,0,0,1-1.52,2.82A25.18,25.18,0,0,1,395.87,54a24.23,24.23,0,0,1-2.19,2.23A12.3,12.3,0,0,1,391,58.08a14.76,14.76,0,0,1,1.45-2.86,20.89,20.89,0,0,1,1.86-2.51,19.39,19.39,0,0,1,2.21-2.23A12.56,12.56,0,0,1,399.25,48.7Z"/><path class="cls-3" d="M375.06,64.73a17.52,17.52,0,0,1-1.52,2.81A27,27,0,0,1,371.67,70a23,23,0,0,1-2.19,2.23,12.49,12.49,0,0,1-2.63,1.84,14.73,14.73,0,0,1,1.44-2.86,20.89,20.89,0,0,1,1.86-2.51,21.14,21.14,0,0,1,2.21-2.23A12.23,12.23,0,0,1,375.06,64.73Z"/><path class="cls-3" d="M384.13,31.51a15.82,15.82,0,0,1-1.52,2.82,25.15,25.15,0,0,1-1.87,2.48,21.92,21.92,0,0,1-2.18,2.24,13.22,13.22,0,0,1-2.64,1.84A14.81,14.81,0,0,1,377.36,38a21.72,21.72,0,0,1,1.86-2.51,19.39,19.39,0,0,1,2.22-2.22A12,12,0,0,1,384.13,31.51Z"/><path class="cls-3" d="M381.54,49.1A17.52,17.52,0,0,1,380,51.91a27,27,0,0,1-1.87,2.49A24.11,24.11,0,0,1,376,56.63a12.82,12.82,0,0,1-2.64,1.84,14.73,14.73,0,0,1,1.44-2.86,21.72,21.72,0,0,1,1.86-2.51,20.32,20.32,0,0,1,2.22-2.23A11.94,11.94,0,0,1,381.54,49.1Z"/><path class="cls-3" d="M361.66,48.7a15.82,15.82,0,0,1-1.52,2.82A25.28,25.28,0,0,1,358.27,54a22.9,22.9,0,0,1-2.18,2.23,12.82,12.82,0,0,1-2.64,1.84,14.73,14.73,0,0,1,1.44-2.86,22,22,0,0,1,1.86-2.51A19.48,19.48,0,0,1,359,50.48,12.32,12.32,0,0,1,361.66,48.7Z"/><path class="cls-3" d="M401,26a15.82,15.82,0,0,1-1.52,2.82,23.67,23.67,0,0,1-1.87,2.48,21.92,21.92,0,0,1-2.18,2.24,13.22,13.22,0,0,1-2.64,1.84,14.84,14.84,0,0,1,1.45-2.87A22.86,22.86,0,0,1,396.07,30a20.23,20.23,0,0,1,2.22-2.22A12,12,0,0,1,401,26Z"/><path class="cls-3" d="M413.51,36.59A15.82,15.82,0,0,1,412,39.41a25.05,25.05,0,0,1-1.86,2.48,23.13,23.13,0,0,1-2.19,2.24A12.67,12.67,0,0,1,405.3,46a14.84,14.84,0,0,1,1.45-2.87,21.72,21.72,0,0,1,1.86-2.51,19.3,19.3,0,0,1,2.21-2.22A12,12,0,0,1,413.51,36.59Z"/><path class="cls-3" d="M301.34,375.4a16.48,16.48,0,0,1-1.52,2.82A26.81,26.81,0,0,1,298,380.7a20.85,20.85,0,0,1-2.18,2.23,12.86,12.86,0,0,1-2.64,1.85,14.53,14.53,0,0,1,1.44-2.87,21.72,21.72,0,0,1,1.86-2.51,19.39,19.39,0,0,1,2.22-2.22A12,12,0,0,1,301.34,375.4Z"/><path class="cls-3" d="M286.65,376.57a17.21,17.21,0,0,1-1.52,2.82,26.81,26.81,0,0,1-1.87,2.48,23,23,0,0,1-2.18,2.24,13.22,13.22,0,0,1-2.64,1.84,14.81,14.81,0,0,1,1.44-2.87,21.72,21.72,0,0,1,1.86-2.51,19.39,19.39,0,0,1,2.22-2.22A12,12,0,0,1,286.65,376.57Z"/><path class="cls-3" d="M271.52,359.38A15.82,15.82,0,0,1,270,362.2a25.05,25.05,0,0,1-1.86,2.48,22,22,0,0,1-2.19,2.23,12.34,12.34,0,0,1-2.64,1.85,14.56,14.56,0,0,1,1.45-2.87,21.72,21.72,0,0,1,1.86-2.51,19.3,19.3,0,0,1,2.21-2.22A12,12,0,0,1,271.52,359.38Z"/><path class="cls-3" d="M268.93,377a15.82,15.82,0,0,1-1.52,2.82,25.15,25.15,0,0,1-1.87,2.48,21.92,21.92,0,0,1-2.18,2.24,12.82,12.82,0,0,1-2.64,1.84,14.73,14.73,0,0,1,1.44-2.86A23.06,23.06,0,0,1,264,381a21.15,21.15,0,0,1,2.22-2.22A12,12,0,0,1,268.93,377Z"/><path class="cls-3" d="M249.05,376.57a15.82,15.82,0,0,1-1.52,2.82,25.05,25.05,0,0,1-1.86,2.48,23.13,23.13,0,0,1-2.19,2.24,12.67,12.67,0,0,1-2.64,1.84,14.84,14.84,0,0,1,1.45-2.87,21.72,21.72,0,0,1,1.86-2.51,19.3,19.3,0,0,1,2.21-2.22A12.2,12.2,0,0,1,249.05,376.57Z"/><path class="cls-3" d="M288.38,353.91a17.21,17.21,0,0,1-1.52,2.82,26.81,26.81,0,0,1-1.87,2.48,21,21,0,0,1-2.19,2.23,12.53,12.53,0,0,1-2.63,1.85,14.53,14.53,0,0,1,1.44-2.87,21.72,21.72,0,0,1,1.86-2.51,19.3,19.3,0,0,1,2.21-2.22A11.92,11.92,0,0,1,288.38,353.91Z"/><path class="cls-3" d="M300.91,364.46a17.21,17.21,0,0,1-1.52,2.82,26.81,26.81,0,0,1-1.87,2.48,21.85,21.85,0,0,1-2.18,2.23,12.86,12.86,0,0,1-2.64,1.85,14.53,14.53,0,0,1,1.44-2.87,21.72,21.72,0,0,1,1.86-2.51,20.14,20.14,0,0,1,2.21-2.22A11.92,11.92,0,0,1,300.91,364.46Z"/><path class="cls-5" d="M5.3-235.6c36,49.2,61.42,119.43,115.53,145.36,19.23,9.22,41.83,18.29,63.09,22.6,21.76,4.4,44.41,8.25,62.63,21.15,11.25,8,17.85,20.22,25,33,7.6,13.53.49,26.29,2.64,42.5,2,15.28,8.65,27.92,14.52,40.66,7.83,17,13.7,36.22,23,52C320,135.53,332.93,146.2,340,161c7,14.58-3.34,47-14.77,61.61-11.87,15.14-26.66,15.81-38.76,11.69-16.55-5.64-34-9.59-50.11-16.34-14.55-6.08-24.55-15.59-35.16-27.54-12.87-14.48-30.25-22.18-46-32.31a435.08,435.08,0,0,0-59.46-31.6c-26-11.54-36.58-41.24-59-57.45C24.44,60.08,7.86,58.43-5.42,51-17.09,44.38-29.19,39.66-41.49,34.5-70.28,22.41-77.68-7.38-76.3-43.44c1.71-44.45,27.42-84.75,46.89-125C-20-188-.12-212.54,3.15-233.58"/><path d="M576.43,102.71a1.25,1.25,0,0,0,0-2.5,1.25,1.25,0,0,0,0,2.5Z"/><path d="M551.35,65.1a1.25,1.25,0,0,0,0-2.5,1.25,1.25,0,0,0,0,2.5Z"/><path d="M578.52,67.19a1.25,1.25,0,0,0,0-2.5,1.25,1.25,0,0,0,0,2.5Z"/><path d="M559,90.87a1.25,1.25,0,0,0,0-2.5,1.25,1.25,0,0,0,0,2.5Z"/><path d="M573.65,79.73a1.25,1.25,0,0,0,0-2.5,1.25,1.25,0,0,0,0,2.5Z"/><path d="M576.43,37.25a1.25,1.25,0,0,0,0-2.5,1.25,1.25,0,0,0,0,2.5Z"/><path d="M552.74,116a1.25,1.25,0,0,0,0-2.5,1.25,1.25,0,0,0,0,2.5Z"/><path d="M529.05,76.94a1.25,1.25,0,0,0,0-2.5,1.25,1.25,0,0,0,0,2.5Z"/><path d="M535.33,31.68a1.25,1.25,0,0,0,0-2.5,1.25,1.25,0,0,0,0,2.5Z"/><path d="M519.3,107.59a1.25,1.25,0,0,0,0-2.5,1.25,1.25,0,0,0,0,2.5Z"/><path d="M575.74,129.87a1.25,1.25,0,0,0,0-2.5,1.25,1.25,0,0,0,0,2.5Z"/><path d="M519.3,46.3a1.25,1.25,0,0,0,0-2.5,1.25,1.25,0,0,0,0,2.5Z"/><path d="M443,345.43a1.25,1.25,0,0,0,0-2.5,1.25,1.25,0,0,0,0,2.5Z"/><path d="M462.8,338.13a1.25,1.25,0,0,0,0-2.5,1.25,1.25,0,0,0,0,2.5Z"/><path d="M452.22,372.1a1.25,1.25,0,0,0,0-2.5,1.25,1.25,0,0,0,0,2.5Z"/><path d="M476.86,353.82a1.25,1.25,0,0,0,0-2.5,1.25,1.25,0,0,0,0,2.5Z"/><path d="M433.12,371a1.25,1.25,0,0,0,0-2.5,1.25,1.25,0,0,0,0,2.5Z"/><path d="M460,361.11a1.25,1.25,0,0,0,0-2.5,1.25,1.25,0,0,0,0,2.5Z"/><path d="M419.9,351.89a1.25,1.25,0,0,0,0-2.5,1.25,1.25,0,0,0,0,2.5Z"/><path d="M489,331a1.25,1.25,0,0,0,0-2.5,1.25,1.25,0,0,0,0,2.5Z"/><path d="M502.58,374.55a1.25,1.25,0,0,0,0-2.5,1.25,1.25,0,0,0,0,2.5Z"/><path d="M403.88,367.29a1.25,1.25,0,0,0,0-2.5,1.25,1.25,0,0,0,0,2.5Z"/><path d="M519.43,347.16a1.25,1.25,0,0,0,0-2.5,1.25,1.25,0,0,0,0,2.5Z"/><path d="M443.17,318.91a1.25,1.25,0,0,0,0-2.5,1.25,1.25,0,0,0,0,2.5Z"/><path d="M402.65,340.43a1.25,1.25,0,0,0,0-2.5,1.25,1.25,0,0,0,0,2.5Z"/><path d="M470,311.94a1.25,1.25,0,0,0,0-2.5,1.25,1.25,0,0,0,0,2.5Z"/><path d="M420,322.5a1.25,1.25,0,0,0,0-2.5,1.25,1.25,0,0,0,0,2.5Z"/><path d="M160.72,22.64a1.5,1.5,0,0,0,0-3,1.5,1.5,0,0,0,0,3Z"/><path d="M143.3,34.48a1.5,1.5,0,0,0,0-3,1.5,1.5,0,0,0,0,3Z"/><path d="M125.89,22.64a1.5,1.5,0,0,0,0-3,1.5,1.5,0,0,0,0,3Z"/><path d="M140.52,11.5a1.5,1.5,0,0,0,0-3,1.5,1.5,0,0,0,0,3Z"/><path d="M181.63,10.8a1.5,1.5,0,0,0,0-3,1.5,1.5,0,0,0,0,3Z"/><path d="M119.62,47.71a1.5,1.5,0,0,0,0-3,1.5,1.5,0,0,0,0,3Z"/><path d="M95.93,8.71a1.5,1.5,0,0,0,0-3,1.5,1.5,0,0,0,0,3Z"/><path d="M86.17,39.35a1.5,1.5,0,0,0,0-3,1.5,1.5,0,0,0,0,3Z"/><path d="M167,48.41a1.5,1.5,0,0,0,0-3,1.5,1.5,0,0,0,0,3Z"/><path d="M201.14,17.76a1.5,1.5,0,0,0,0-3,1.5,1.5,0,0,0,0,3Z"/><path d="M142.61,61.64a1.5,1.5,0,0,0,0-3,1.5,1.5,0,0,0,0,3Z"/><path d="M188.59,39.35a1.5,1.5,0,0,0,0-3,1.5,1.5,0,0,0,0,3Z"/></g></svg>